# WaveFront *.obj file (generated by Autodesk ATF)

mtllib d32b96c3-42ce-45bb-a9bd-6284c838be51.mtl

g Body1

v -375.000000 -525.000000 -825.000000
v 1825.000000 -525.000000 -825.000000
v 1825.000000 -525.000000 -775.000000
v -375.000000 -525.000000 -775.000000
v -375.000000 475.000000 -825.000000
v -375.000000 475.000000 -775.000000
v 1825.000000 475.000000 -825.000000
v 1825.000000 475.000000 -775.000000
v 675.000000 -25.000000 -775.000000
v 725.000000 -25.000000 -775.000000
v 725.000000 -25.000000 -128.806000
v 675.000000 -25.000000 -128.806000
v 725.000000 0.000000 -128.806000
v 675.000000 0.000000 -128.806000
v 675.000000 0.000000 -150.000000
v 675.000000 25.000000 -150.000000
v 675.000000 25.000000 -775.000000
v 725.000000 0.000000 -150.000000
v 725.000000 25.000000 -775.000000
v 725.000000 25.000000 -150.000000
v -150.000000 0.000000 -150.000000
v -150.000000 30.000000 -150.000000
v 1550.000000 30.000000 -150.000000
v 1550.000000 0.000000 -150.000000
v 50.000000 30.000000 50.000000
v 1350.000000 30.000000 50.000000
v 1350.000000 100.000000 50.000000
v 50.000000 100.000000 50.000000
v 1350.000000 30.000000 1350.000000
v 1350.000000 100.000000 1350.000000
v 1400.000000 30.000000 0.000000
v 0.000000 30.000000 0.000000
v 0.000000 100.000000 0.000000
v 1400.000000 100.000000 0.000000
v 0.000000 30.000000 1400.000000
v 0.000000 100.000000 1400.000000
v 50.000000 30.000000 1350.000000
v 50.000000 100.000000 1350.000000
v 1400.000000 30.000000 1400.000000
v 1400.000000 100.000000 1400.000000
v -150.000000 30.000000 1550.000000
v 1550.000000 30.000000 1550.000000
v 1320.000000 0.000000 80.000000
v 1320.000000 0.000000 1320.000000
v 1320.000000 30.000000 1320.000000
v 1320.000000 30.000000 80.000000
v 80.000000 0.000000 80.000000
v 80.000000 30.000000 80.000000
v 80.000000 0.000000 1320.000000
v 80.000000 30.000000 1320.000000
v -150.000000 0.000000 1550.000000
v 1550.000000 0.000000 1550.000000
vt 0.000000 0.000000 0.000000
vt 220.000000 0.000000 0.000000
vt 0.000000 5.000000 0.000000
vt 220.000000 5.000000 0.000000
vt -0.000000 0.000000 0.000000
vt 100.000000 0.000000 0.000000
vt -0.000000 5.000000 0.000000
vt 100.000000 5.000000 0.000000
vt -0.000000 0.000000 0.000000
vt 220.000000 0.000000 0.000000
vt -0.000000 5.000000 0.000000
vt 220.000000 5.000000 0.000000
vt 0.000000 0.000000 0.000000
vt 100.000000 0.000000 0.000000
vt 0.000000 5.000000 0.000000
vt 100.000000 5.000000 0.000000
vt 2.500000 100.000000 0.000000
vt 67.119400 100.000000 0.000000
vt 2.500000 105.000000 0.000000
vt 67.119400 105.000000 0.000000
vt 2.500000 0.000000 0.000000
vt -2.500000 0.000000 0.000000
vt 2.500000 -2.500000 0.000000
vt -2.500000 -2.500000 0.000000
vt 2.500000 64.619400 0.000000
vt 2.500000 62.500000 0.000000
vt 5.000000 64.619400 0.000000
vt 5.000000 0.000000 0.000000
vt -0.000000 0.000000 0.000000
vt -0.000000 62.500000 0.000000
vt 2.500000 64.619400 0.000000
vt 0.000000 64.619400 0.000000
vt 2.500000 62.500000 0.000000
vt 0.000000 0.000000 0.000000
vt 5.000000 0.000000 0.000000
vt 5.000000 62.500000 0.000000
vt -52.500000 210.000000 0.000000
vt -52.500000 -10.000000 0.000000
vt -2.500000 100.000000 0.000000
vt 47.500000 -10.000000 0.000000
vt 2.500000 100.000000 0.000000
vt 47.500000 210.000000 0.000000
vt 2.500000 105.000000 0.000000
vt -2.500000 105.000000 0.000000
vt -65.000000 105.000000 0.000000
vt -2.500000 100.000000 0.000000
vt -65.000000 100.000000 0.000000
vt -47.500000 -10.000000 0.000000
vt 52.500000 -10.000000 0.000000
vt -47.500000 210.000000 0.000000
vt 52.500000 210.000000 0.000000
vt 82.500000 0.000000 0.000000
vt 82.500000 2.500000 0.000000
vt -0.000000 0.000000 0.000000
vt -0.000000 3.000000 0.000000
vt 87.500000 2.500000 0.000000
vt 170.000000 3.000000 0.000000
vt 170.000000 0.000000 0.000000
vt 87.500000 0.000000 0.000000
vt 0.000000 3.000000 0.000000
vt 130.000000 3.000000 0.000000
vt 0.000000 10.000000 0.000000
vt 130.000000 10.000000 0.000000
vt 0.000000 3.000000 0.000000
vt 130.000000 3.000000 0.000000
vt 0.000000 10.000000 0.000000
vt 130.000000 10.000000 0.000000
vt -0.000000 3.000000 0.000000
vt 140.000000 3.000000 0.000000
vt -0.000000 10.000000 0.000000
vt 140.000000 10.000000 0.000000
vt 0.000000 3.000000 0.000000
vt 140.000000 3.000000 0.000000
vt 0.000000 10.000000 0.000000
vt 140.000000 10.000000 0.000000
vt 0.000000 3.000000 0.000000
vt 130.000000 3.000000 0.000000
vt 0.000000 10.000000 0.000000
vt 130.000000 10.000000 0.000000
vt 0.000000 3.000000 0.000000
vt 130.000000 3.000000 0.000000
vt 0.000000 10.000000 0.000000
vt 130.000000 10.000000 0.000000
vt -0.000000 3.000000 0.000000
vt 140.000000 3.000000 0.000000
vt -0.000000 10.000000 0.000000
vt 140.000000 10.000000 0.000000
vt 0.000000 3.000000 0.000000
vt 140.000000 3.000000 0.000000
vt 0.000000 10.000000 0.000000
vt 140.000000 10.000000 0.000000
vt 65.000000 -65.000000 0.000000
vt 70.000000 -70.000000 0.000000
vt 65.000000 65.000000 0.000000
vt 70.000000 70.000000 0.000000
vt -70.000000 70.000000 0.000000
vt -65.000000 -65.000000 0.000000
vt -70.000000 -70.000000 0.000000
vt -65.000000 65.000000 0.000000
vt 85.000000 85.000000 0.000000
vt 70.000000 70.000000 0.000000
vt 85.000000 -85.000000 0.000000
vt 70.000000 -70.000000 0.000000
vt -70.000000 -70.000000 0.000000
vt -85.000000 85.000000 0.000000
vt -70.000000 70.000000 0.000000
vt -85.000000 -85.000000 0.000000
vt 0.000000 0.000000 0.000000
vt 124.000000 0.000000 0.000000
vt 0.000000 3.000000 0.000000
vt 124.000000 3.000000 0.000000
vt 0.000000 0.000000 0.000000
vt 124.000000 0.000000 0.000000
vt 0.000000 3.000000 0.000000
vt 124.000000 3.000000 0.000000
vt 0.000000 0.000000 0.000000
vt 124.000000 0.000000 0.000000
vt 0.000000 3.000000 0.000000
vt 124.000000 3.000000 0.000000
vt 0.000000 0.000000 0.000000
vt 124.000000 0.000000 0.000000
vt 0.000000 3.000000 0.000000
vt 124.000000 3.000000 0.000000
vt 0.000000 0.000000 0.000000
vt 170.000000 0.000000 0.000000
vt 0.000000 3.000000 0.000000
vt 170.000000 3.000000 0.000000
vt -0.000000 0.000000 0.000000
vt 170.000000 0.000000 0.000000
vt -0.000000 3.000000 0.000000
vt 170.000000 3.000000 0.000000
vt 0.000000 0.000000 0.000000
vt 170.000000 0.000000 0.000000
vt 0.000000 3.000000 0.000000
vt 170.000000 3.000000 0.000000
vt 65.000000 -65.000000 0.000000
vt 65.000000 65.000000 0.000000
vt 62.000000 62.000000 0.000000
vt -65.000000 65.000000 0.000000
vt -62.000000 62.000000 0.000000
vt -65.000000 -65.000000 0.000000
vt -62.000000 -62.000000 0.000000
vt 62.000000 -62.000000 0.000000
vt -2.500000 85.000000 0.000000
vt -62.000000 62.000000 0.000000
vt -2.500000 82.880600 0.000000
vt 62.000000 62.000000 0.000000
vt 2.500000 82.880600 0.000000
vt 2.500000 85.000000 0.000000
vt 85.000000 85.000000 0.000000
vt 85.000000 -85.000000 0.000000
vt 62.000000 -62.000000 0.000000
vt -62.000000 -62.000000 0.000000
vt -85.000000 85.000000 0.000000
vt -85.000000 -85.000000 0.000000
vn 0.000000 -0.100000 0.000000
vn 0.000000 -0.100000 0.000000
vn 0.000000 -0.100000 0.000000
vn 0.000000 -0.100000 0.000000
vn -0.100000 0.000000 0.000000
vn -0.100000 0.000000 0.000000
vn -0.100000 0.000000 0.000000
vn -0.100000 0.000000 0.000000
vn 0.000000 0.100000 0.000000
vn 0.000000 0.100000 0.000000
vn 0.000000 0.100000 0.000000
vn 0.000000 0.100000 0.000000
vn 0.100000 0.000000 0.000000
vn 0.100000 0.000000 0.000000
vn 0.100000 0.000000 0.000000
vn 0.100000 0.000000 0.000000
vn 0.000000 -0.100000 0.000000
vn 0.000000 -0.100000 0.000000
vn 0.000000 -0.100000 0.000000
vn 0.000000 -0.100000 0.000000
vn 0.000000 0.000000 0.100000
vn 0.000000 0.000000 0.100000
vn 0.000000 0.000000 0.100000
vn 0.000000 0.000000 0.100000
vn -0.100000 0.000000 0.000000
vn -0.100000 0.000000 0.000000
vn -0.100000 0.000000 0.000000
vn -0.100000 0.000000 0.000000
vn -0.100000 0.000000 0.000000
vn -0.100000 0.000000 0.000000
vn 0.100000 0.000000 0.000000
vn 0.100000 0.000000 0.000000
vn 0.100000 0.000000 0.000000
vn 0.100000 0.000000 0.000000
vn 0.100000 0.000000 0.000000
vn 0.100000 0.000000 0.000000
vn 0.000000 0.000000 0.100000
vn 0.000000 0.000000 0.100000
vn 0.000000 0.000000 0.100000
vn 0.000000 0.000000 0.100000
vn 0.000000 0.000000 0.100000
vn 0.000000 0.000000 0.100000
vn 0.000000 0.000000 0.100000
vn 0.000000 0.000000 0.100000
vn 0.000000 0.100000 0.000000
vn 0.000000 0.100000 0.000000
vn 0.000000 0.100000 0.000000
vn 0.000000 0.100000 0.000000
vn 0.000000 0.000000 -0.100000
vn 0.000000 0.000000 -0.100000
vn 0.000000 0.000000 -0.100000
vn 0.000000 0.000000 -0.100000
vn 0.000000 0.000000 -0.100000
vn 0.000000 0.000000 -0.100000
vn 0.000000 0.000000 -0.100000
vn 0.000000 0.000000 -0.100000
vn 0.000000 0.000000 -0.100000
vn 0.000000 0.000000 -0.100000
vn 0.000000 0.000000 -0.100000
vn 0.000000 0.000000 -0.100000
vn 0.000000 0.000000 0.100000
vn 0.000000 0.000000 0.100000
vn 0.000000 0.000000 0.100000
vn 0.000000 0.000000 0.100000
vn -0.100000 0.000000 0.000000
vn -0.100000 0.000000 0.000000
vn -0.100000 0.000000 0.000000
vn -0.100000 0.000000 0.000000
vn 0.000000 0.000000 -0.100000
vn 0.000000 0.000000 -0.100000
vn 0.000000 0.000000 -0.100000
vn 0.000000 0.000000 -0.100000
vn -0.100000 0.000000 0.000000
vn -0.100000 0.000000 0.000000
vn -0.100000 0.000000 0.000000
vn -0.100000 0.000000 0.000000
vn 0.100000 -0.000000 0.000000
vn 0.100000 -0.000000 0.000000
vn 0.100000 -0.000000 0.000000
vn 0.100000 -0.000000 0.000000
vn 0.000000 0.000000 -0.100000
vn 0.000000 0.000000 -0.100000
vn 0.000000 0.000000 -0.100000
vn 0.000000 0.000000 -0.100000
vn 0.100000 0.000000 0.000000
vn 0.100000 0.000000 0.000000
vn 0.100000 0.000000 0.000000
vn 0.100000 0.000000 0.000000
vn 0.000000 -0.000000 0.100000
vn 0.000000 -0.000000 0.100000
vn 0.000000 -0.000000 0.100000
vn 0.000000 -0.000000 0.100000
vn 0.000000 0.100000 0.000000
vn 0.000000 0.100000 0.000000
vn 0.000000 0.100000 0.000000
vn 0.000000 0.100000 0.000000
vn 0.000000 0.100000 0.000000
vn 0.000000 0.100000 0.000000
vn 0.000000 0.100000 0.000000
vn 0.000000 0.100000 0.000000
vn 0.000000 0.100000 0.000000
vn 0.000000 0.100000 0.000000
vn 0.000000 0.100000 0.000000
vn 0.000000 0.100000 0.000000
vn 0.000000 0.100000 0.000000
vn 0.000000 0.100000 0.000000
vn 0.000000 0.100000 0.000000
vn 0.000000 0.100000 0.000000
vn -0.100000 0.000000 0.000000
vn -0.100000 0.000000 0.000000
vn -0.100000 0.000000 0.000000
vn -0.100000 0.000000 0.000000
vn 0.000000 0.000000 0.100000
vn 0.000000 0.000000 0.100000
vn 0.000000 0.000000 0.100000
vn 0.000000 0.000000 0.100000
vn 0.100000 -0.000000 0.000000
vn 0.100000 -0.000000 0.000000
vn 0.100000 -0.000000 0.000000
vn 0.100000 -0.000000 0.000000
vn 0.000000 0.000000 -0.100000
vn 0.000000 0.000000 -0.100000
vn 0.000000 0.000000 -0.100000
vn 0.000000 0.000000 -0.100000
vn -0.100000 0.000000 0.000000
vn -0.100000 0.000000 0.000000
vn -0.100000 0.000000 0.000000
vn -0.100000 0.000000 0.000000
vn 0.100000 0.000000 0.000000
vn 0.100000 0.000000 0.000000
vn 0.100000 0.000000 0.000000
vn 0.100000 0.000000 0.000000
vn 0.000000 -0.000000 0.100000
vn 0.000000 -0.000000 0.100000
vn 0.000000 -0.000000 0.100000
vn 0.000000 -0.000000 0.100000
vn 0.000000 0.100000 0.000000
vn 0.000000 0.100000 0.000000
vn 0.000000 0.100000 0.000000
vn 0.000000 0.100000 0.000000
vn 0.000000 0.100000 0.000000
vn 0.000000 0.100000 0.000000
vn 0.000000 0.100000 0.000000
vn 0.000000 0.100000 0.000000
vn 0.000000 -0.100000 0.000000
vn 0.000000 -0.100000 0.000000
vn 0.000000 -0.100000 0.000000
vn 0.000000 -0.100000 0.000000
vn 0.000000 -0.100000 0.000000
vn 0.000000 -0.100000 0.000000
vn 0.000000 -0.100000 0.000000
vn 0.000000 -0.100000 0.000000
vn 0.000000 -0.100000 0.000000
vn 0.000000 -0.100000 0.000000
vn 0.000000 -0.100000 0.000000
vn 0.000000 -0.100000 0.000000
usemtl ABS_(White)
f 1/1/1 2/2/2 4/3/3
f 4/3/3 2/2/2 3/4/4
f 5/5/5 1/6/6 6/7/7
f 6/7/7 1/6/6 4/8/8
f 7/9/9 5/10/10 8/11/11
f 8/11/11 5/10/10 6/12/12
f 2/13/13 7/14/14 3/15/15
f 3/15/15 7/14/14 8/16/16
f 10/17/17 11/18/18 9/19/19
f 9/19/19 11/18/18 12/20/20
f 13/21/21 14/22/22 11/23/23
f 11/23/23 14/22/22 12/24/24
f 14/25/25 15/26/26 12/27/27
f 12/27/27 15/26/26 9/28/28
f 9/28/28 15/26/26 17/29/29
f 17/29/29 15/26/26 16/30/30
f 13/31/31 11/32/32 18/33/33
f 18/33/33 11/32/32 10/34/34
f 18/33/33 10/34/34 19/35/35
f 19/35/35 20/36/36 18/33/33
f 4/37/37 3/38/38 10/39/39
f 10/39/39 3/38/38 8/40/40
f 10/39/39 8/40/40 19/41/41
f 19/41/41 8/40/40 6/42/42
f 19/41/41 6/42/42 17/43/43
f 17/43/43 6/42/42 9/44/44
f 9/44/44 6/42/42 4/37/37
f 9/44/44 4/37/37 10/39/39
f 17/43/45 16/45/46 19/46/47
f 19/46/47 16/45/46 20/47/48
f 7/48/49 2/49/50 5/50/51
f 5/50/51 2/49/50 1/51/52
f 18/52/53 20/53/54 24/54/55
f 24/54/55 20/53/54 23/55/56
f 23/55/56 20/53/54 16/56/57
f 23/55/56 16/56/57 22/57/58
f 22/57/58 16/56/57 21/58/59
f 21/58/59 16/56/57 15/59/60
f 25/60/61 26/61/62 28/62/63
f 28/62/63 26/61/62 27/63/64
f 26/64/65 29/65/66 27/66/67
f 27/66/67 29/65/66 30/67/68
f 31/68/69 32/69/70 34/70/71
f 34/70/71 32/69/70 33/71/72
f 32/72/73 35/73/74 33/74/75
f 33/74/75 35/73/74 36/75/76
f 37/76/77 25/77/78 38/78/79
f 38/78/79 25/77/78 28/79/80
f 29/80/81 37/81/82 30/82/83
f 30/82/83 37/81/82 38/83/84
f 39/84/85 31/85/86 40/86/87
f 40/86/87 31/85/86 34/87/88
f 35/88/89 39/89/90 36/90/91
f 36/90/91 39/89/90 40/91/92
usemtl Paek_(Beige)
f 38/92/93 36/93/94 30/94/95
f 30/94/95 36/93/94 40/95/96
f 30/94/95 40/95/96 34/96/97
f 38/92/93 28/97/98 36/93/94
f 36/93/94 28/97/98 33/98/99
f 33/98/99 28/97/98 27/99/100
f 33/98/99 27/99/100 34/96/97
f 34/96/97 27/99/100 30/94/95
usemtl ABS_(White)
f 42/100/101 39/101/102 41/102/103
f 41/102/103 39/101/102 35/103/104
f 41/102/103 35/103/104 32/104/105
f 42/100/101 23/105/106 39/101/102
f 39/101/102 23/105/106 31/106/107
f 31/106/107 23/105/106 22/107/108
f 31/106/107 22/107/108 32/104/105
f 32/104/105 22/107/108 41/102/103
f 43/108/109 44/109/110 46/110/111
f 46/110/111 44/109/110 45/111/112
f 47/112/113 43/113/114 48/114/115
f 48/114/115 43/113/114 46/115/116
f 49/116/117 47/117/118 50/118/119
f 50/118/119 47/117/118 48/119/120
f 44/120/121 49/121/122 45/122/123
f 45/122/123 49/121/122 50/123/124
f 21/124/125 51/125/126 22/126/127
f 22/126/127 51/125/126 41/127/128
f 52/128/129 24/129/130 42/130/131
f 42/130/131 24/129/130 23/131/132
f 51/132/133 52/133/134 41/134/135
f 41/134/135 52/133/134 42/135/136
f 37/136/137 29/137/138 45/138/139
f 45/138/139 29/137/138 26/139/140
f 45/138/139 26/139/140 46/140/141
f 46/140/141 26/139/140 25/141/142
f 46/140/141 25/141/142 48/142/143
f 48/142/143 25/141/142 37/136/137
f 48/142/143 37/136/137 50/143/144
f 50/143/144 37/136/137 45/138/139
f 18/144/145 43/145/146 13/146/147
f 13/146/147 43/145/146 47/147/148
f 13/146/147 47/147/148 14/148/149
f 14/148/149 47/147/148 15/149/150
f 15/149/150 47/147/148 21/150/151
f 21/150/151 47/147/148 51/151/152
f 51/151/152 47/147/148 49/152/153
f 51/151/152 49/152/153 44/153/154
f 18/144/145 24/154/155 43/145/146
f 43/145/146 24/154/155 52/155/156
f 43/145/146 52/155/156 44/153/154
f 44/153/154 52/155/156 51/151/152
# 52 vertices
# 155 texture params
# 156 normals
# 104 facets

# 1 groups
